<svg xmlns="http://www.w3.org/2000/svg" viewBox="0 0 66 64.64"><defs><style>.cls-1{fill:#231f20;}</style></defs><g id="Layer_2" data-name="Layer 2"><g id="Outline"><path class="cls-1" d="M7.81,63a1,1,0,0,1-.71-.29A1,1,0,0,1,6.81,62V52.8A12.32,12.32,0,0,1,19.28,40c5.1-.14,8.8,1,11,3.32H41.55a5.65,5.65,0,0,1,4,1.63,5.58,5.58,0,0,1,1.65,3.81l10.63-9.7a4.87,4.87,0,0,1,6.91.3A4.92,4.92,0,0,1,66,42.87a4.87,4.87,0,0,1-1.59,3.39L48.07,61.19A6.92,6.92,0,0,1,43.39,63L7.81,63ZM20.13,42h-.8C13,42.16,8.81,46.5,8.81,52.8V61l34.58,0a4.89,4.89,0,0,0,3.33-1.3L63.06,44.79h0a2.89,2.89,0,1,0-3.9-4.27L44.1,54.28a1,1,0,0,1-.68.26H42a1,1,0,0,1-.1-2,3.63,3.63,0,0,0,2.2-6.18,3.67,3.67,0,0,0-2.57-1H29.87A1,1,0,0,1,29.1,45C27.43,43,24.41,42,20.13,42Z"/><path class="cls-1" d="M42,54.54H26.22a1,1,0,1,1,0-2H42a1,1,0,0,1,0,2Z"/><path class="cls-1" d="M6.2,64.64H2.61A2.61,2.61,0,0,1,0,62V43a2.61,2.61,0,0,1,2.61-2.61H6.2A2.61,2.61,0,0,1,8.81,43V62A2.61,2.61,0,0,1,6.2,64.64ZM2.61,42.34A.61.61,0,0,0,2,43V62a.61.61,0,0,0,.61.61H6.2A.61.61,0,0,0,6.81,62V43a.61.61,0,0,0-.61-.61Z"/><path class="cls-1" d="M38,9.41a2.3,2.3,0,0,0-1.27-.53v-2a1.37,1.37,0,0,1,.57.18,1.45,1.45,0,0,1,.49.55.39.39,0,0,0,.25.2.3.3,0,0,0,.29,0,.36.36,0,0,0,.16-.24.55.55,0,0,0-.09-.33,2.46,2.46,0,0,0-.45-.56,1.78,1.78,0,0,0-.61-.37,2.28,2.28,0,0,0-.61-.12V5.75a.25.25,0,0,0-.07-.18.27.27,0,0,0-.36,0,.21.21,0,0,0-.07.18v.4a2.53,2.53,0,0,0-.79.17,1.86,1.86,0,0,0-.77.56,1.4,1.4,0,0,0-.28.88,1.53,1.53,0,0,0,.24.85,1.75,1.75,0,0,0,.7.61,2.71,2.71,0,0,0,.9.27v2.19a2,2,0,0,1-.75-.16,1,1,0,0,1-.56-.48.56.56,0,0,0-.2-.23.34.34,0,0,0-.26,0,.39.39,0,0,0-.27.18.34.34,0,0,0,0,.31,1.51,1.51,0,0,0,.49.64,2.35,2.35,0,0,0,.79.4,3.1,3.1,0,0,0,.76.12v.5a.25.25,0,0,0,.43.18.29.29,0,0,0,.07-.18v-.51a2,2,0,0,0,.47-.09,2.1,2.1,0,0,0,.67-.33,1.73,1.73,0,0,0,.48-.56,1.66,1.66,0,0,0,.18-.78A1.57,1.57,0,0,0,38,9.41Zm-2.3-.79a.92.92,0,0,1-.41-.39,1,1,0,0,1-.11-.46.77.77,0,0,1,.37-.7,1.47,1.47,0,0,1,.68-.2V8.79A1.74,1.74,0,0,1,35.65,8.62Zm1.84,2.61a1.2,1.2,0,0,1-.48.35,1.39,1.39,0,0,1-.33.1V9.58a1.33,1.33,0,0,1,.68.35,1,1,0,0,1,.31.74A.87.87,0,0,1,37.49,11.23Z"/><path class="cls-1" d="M37.2,15.53h-.14a12.15,12.15,0,0,0-1.9-.06H35l-.13,0a6.26,6.26,0,1,1,7.67-6.1A6.13,6.13,0,0,1,42,12a6.21,6.21,0,0,1-4.64,3.56Zm-1.42-2.08a12.21,12.21,0,0,1,1.35.07,4.22,4.22,0,0,0,3-2.41,4.15,4.15,0,0,0,.39-1.77,4.27,4.27,0,1,0-8.53,0A4,4,0,0,0,32.36,11a4.25,4.25,0,0,0,2.83,2.48Z"/><path class="cls-1" d="M41.21,17.77l-.51-.22a12.22,12.22,0,0,0-5.74-1,13.85,13.85,0,0,0-3.65.7l-.51.17-.42-.33a9.58,9.58,0,0,1-2.94-3.9,9.37,9.37,0,0,1-.71-3.61,9.56,9.56,0,1,1,14.94,7.9Zm-5.52-3.26a17,17,0,0,1,1.74.09,14.61,14.61,0,0,1,3.54.9,7.49,7.49,0,0,0,2.22-2.86A7.56,7.56,0,1,0,28.73,9.56a7.39,7.39,0,0,0,.56,2.85,7.47,7.47,0,0,0,1.93,2.75,16.45,16.45,0,0,1,3.63-.63C35.13,14.51,35.41,14.51,35.69,14.51Z"/><path class="cls-1" d="M44.15,39.69a3.36,3.36,0,0,1-2.34-.93,3.45,3.45,0,0,1-1-1.77,20.11,20.11,0,0,1-9.54,0,3.31,3.31,0,0,1-1,1.72,3.43,3.43,0,0,1-2.51.94,3.5,3.5,0,0,1-3.24-3.52V33.89a8.48,8.48,0,0,1-3.68-3.83c-.58-.2-1.05-.33-1.55-.46a19.65,19.65,0,0,1-2.12-.67,2.79,2.79,0,0,1-.69-.4A2,2,0,0,1,15.71,27V24.63a2.21,2.21,0,0,1,1.83-2l3.7-5c0-.05,0-.29,0-.39l-.45-3a1.4,1.4,0,0,1,1.73-1.58l3,.66A16.52,16.52,0,0,1,28,11.88l.94-.43.4,1a7.47,7.47,0,0,0,1.93,2.75,16.45,16.45,0,0,1,3.63-.63,16,16,0,0,1,2.58.07,14.61,14.61,0,0,1,3.54.9,7.49,7.49,0,0,0,2.22-2.86l.43-1,.94.48c5,2.5,8,6.89,8,11.73a12.67,12.67,0,0,1-5,9.79v2.49a3.47,3.47,0,0,1-3.22,3.53Zm-1.4-5.39v2a1.4,1.4,0,0,0,1.49,1.39,1.49,1.49,0,0,0,1.32-1.53V32.69l.4-.3a10.83,10.83,0,0,0,4.57-8.51c0-3.78-2.23-7.27-6-9.47a9.58,9.58,0,0,1-2.86,3.05l-.46.31-.51-.22a12.22,12.22,0,0,0-5.74-1,13.85,13.85,0,0,0-3.65.7l-.51.17-.42-.33a9.43,9.43,0,0,1-2.48-2.93,13.08,13.08,0,0,0-1.63,1l-.36.26-3-.68L23.21,17A3.38,3.38,0,0,1,23,18.63l-.06.09-4.24,5.7-.41.06a1.27,1.27,0,0,0-.58.23l0,2.25.23.11a16.23,16.23,0,0,0,1.91.6,17.36,17.36,0,0,1,2.12.66l.39.15.17.38a6.63,6.63,0,0,0,3.12,3.35,3.16,3.16,0,0,1,.49.29l.42.3v3.37a1.48,1.48,0,0,0,1.33,1.52,1.4,1.4,0,0,0,1-.39,1.35,1.35,0,0,0,.43-1V34.36l1.31.42a17.91,17.91,0,0,0,10.77-.05ZM22.05,14.55h0Zm.71-.66h0Z"/><path class="cls-1" d="M25,23.92a2.17,2.17,0,1,1,2.17-2.17A2.17,2.17,0,0,1,25,23.92Zm0-2.34a.18.18,0,0,0-.17.17c0,.19.34.19.34,0A.18.18,0,0,0,25,21.58Z"/><path class="cls-1" d="M52.34,25a5,5,0,0,1-1-.1,1,1,0,1,1,.36-2c.74.13,1.07,0,1.14,0s.06-.75,0-1.12a2.9,2.9,0,0,1,.59-2.64,2.94,2.94,0,0,1,2.92-.33,1,1,0,0,1-.56,1.93c-.77-.23-1-.12-1-.12a5.05,5.05,0,0,0,.06.94,3.27,3.27,0,0,1-.56,2.72A2.58,2.58,0,0,1,52.34,25Z"/><path class="cls-1" d="M42.84,18.53a1,1,0,0,1-.51-.14,13.12,13.12,0,0,0-1.62-.83,12.58,12.58,0,0,0-3.51-1A13,13,0,0,0,35,16.53a13.85,13.85,0,0,0-3.65.7,11.91,11.91,0,0,0-2.51,1.14,1,1,0,0,1-1.09-1.68,14,14,0,0,1,3-1.36,16.52,16.52,0,0,1,4.17-.8,16,16,0,0,1,2.58.07,14.49,14.49,0,0,1,4.07,1.12,16.26,16.26,0,0,1,1.85,1,1,1,0,0,1-.51,1.86Z"/></g></g></svg>