<svg xmlns="http://www.w3.org/2000/svg" viewBox="0 0 61.12 66"><defs><style>.cls-1,.cls-2{fill:none;stroke-linecap:round;stroke-linejoin:round;stroke-width:2px;}.cls-1{stroke:#000;}.cls-2{stroke:#231f20;}.cls-3{fill:#231f20;}</style></defs><g id="Layer_2" data-name="Layer 2"><g id="Outline"><path class="cls-1" d="M59.14,8.58,44.85,2.88a1.55,1.55,0,0,0-1.16,0L35.23,6.26,30.07,8.31l-.68.27a1.42,1.42,0,0,0-.69.56,1.53,1.53,0,0,0-.28.88V25.76a1.53,1.53,0,0,0,0,.3c.09.43,2.26,10.51,15.36,14.6a1.77,1.77,0,0,0,.46.07,1.9,1.9,0,0,0,.46-.07l1.21-.41a25.57,25.57,0,0,0,6.85-3.66,19.14,19.14,0,0,0,7.3-10.53,1.53,1.53,0,0,0,0-.3V10A1.57,1.57,0,0,0,59.14,8.58ZM57,25.58a15.53,15.53,0,0,1-4.21,6.91,20.69,20.69,0,0,1-6.85,4.42c-.53.22-1.08.43-1.67.63C34,34.15,31.81,26.71,31.53,25.59V11.49a.61.61,0,0,1,.39-.57l.43-.17,4-1.61.75-.29L44,6.09a.58.58,0,0,1,.45,0l12.14,4.83a.61.61,0,0,1,.37.57Z"/><path d="M42.37,28.85a1,1,0,0,1-.25,0,1,1,0,0,1-.48-.26L36,22.94a1,1,0,0,1,0-1.41l2.78-2.79a1,1,0,0,1,1.41,0l2.14,2.15,6-6a1,1,0,0,1,1.42,0l2.78,2.78a1,1,0,0,1,.29.71,1,1,0,0,1-.29.7l-9.45,9.45A1,1,0,0,1,42.37,28.85Zm-4.23-6.62,4.21,4.22,8-8L49,17l-6,6a1,1,0,0,1-1.41,0L39.5,20.87Z"/><path class="cls-2" d="M44.72,40.66a1.76,1.76,0,0,1-.45.07,1.91,1.91,0,0,1-.47-.07c-13.1-4.09-15.27-14.17-15.36-14.6a1.53,1.53,0,0,1,0-.3V24.23H4.26A3.26,3.26,0,0,0,1,27.49V61.74A3.26,3.26,0,0,0,4.26,65H42.67a3.26,3.26,0,0,0,3.26-3.26V40.25ZM27.5,43.12l.87,10.62H18.55l.88-10.62h0a4.93,4.93,0,0,1,4-7.81,4.94,4.94,0,0,1,4,7.81Z"/><path class="cls-3" d="M28.37,54.74H18.55a1,1,0,0,1-.73-.33,1,1,0,0,1-.26-.76l.85-10.28a5.89,5.89,0,0,1-.9-3.12,6,6,0,0,1,11.9,0,5.78,5.78,0,0,1-.89,3.12l.85,10.28a1,1,0,0,1-1,1.09Zm-8.73-2h7.65l-.78-9.43a1,1,0,0,1,.17-.78,3.87,3.87,0,0,0,.73-2.28,4,4,0,1,0-7.15,2.29,1,1,0,0,1,.16.8Z"/><path class="cls-3" d="M12.71,25.23H7.66a1,1,0,0,1-1-1V16.82A16.8,16.8,0,0,1,36,5.59a1,1,0,0,1,.23.9,1,1,0,0,1-.6.7L30.44,9.24a1,1,0,0,1-1-.14,9.76,9.76,0,0,0-15.75,7.72v7.41A1,1,0,0,1,12.71,25.23Zm-4.05-2h3.05V16.82A11.78,11.78,0,0,1,23.47,5.05a11.64,11.64,0,0,1,6.74,2.12l3.24-1.28A14.79,14.79,0,0,0,8.66,16.82Z"/><path class="cls-3" d="M28.37,54.74H18.55a1,1,0,0,1-.73-.33,1,1,0,0,1-.26-.76l.85-10.28a5.89,5.89,0,0,1-.9-3.12,6,6,0,0,1,11.9,0,5.78,5.78,0,0,1-.89,3.12l.85,10.28a1,1,0,0,1-1,1.09Zm-8.73-2h7.65l-.78-9.4a1,1,0,0,1,.17-.81,3.87,3.87,0,0,0,.73-2.28,4,4,0,1,0-7.15,2.29,1,1,0,0,1,.16.8Z"/><path class="cls-3" d="M7.66,35.26H1a1,1,0,0,1,0-2H7.66a1,1,0,1,1,0,2Z"/><path class="cls-3" d="M7.66,45.29H1a1,1,0,0,1,0-2H7.66a1,1,0,1,1,0,2Z"/><path class="cls-3" d="M7.66,55.32H1a1,1,0,0,1,0-2H7.66a1,1,0,1,1,0,2Z"/><path class="cls-3" d="M45.93,45.29H39.27a1,1,0,0,1,0-2h6.66a1,1,0,0,1,0,2Z"/><path class="cls-3" d="M45.93,55.32H39.27a1,1,0,0,1,0-2h6.66a1,1,0,0,1,0,2Z"/></g></g></svg>