<svg xmlns="http://www.w3.org/2000/svg" viewBox="0 0 66 55"><defs><style>.cls-1{fill:none;stroke:#000;stroke-linecap:round;stroke-linejoin:round;stroke-width:2px;}.cls-2{fill:#231f20;}</style></defs><g id="Layer_2" data-name="Layer 2"><g id="Outline"><path class="cls-1" d="M64.08,6.46,50.67,1.11a1.38,1.38,0,0,0-1.09,0L36.17,6.46a1.33,1.33,0,0,0-.66.53.06.06,0,0,0,0,0,1.27,1.27,0,0,0-.25.78V22.58a1.33,1.33,0,0,0,0,.28c.08.41,2.12,9.86,14.41,13.7a1.39,1.39,0,0,0,.87,0,24.37,24.37,0,0,0,7.56-3.82,18.56,18.56,0,0,0,1.48-1.23A17.42,17.42,0,0,0,65,22.86a1.33,1.33,0,0,0,0-.28V7.81A1.47,1.47,0,0,0,64.08,6.46Zm-2,16a13.53,13.53,0,0,1-2.47,4.8,16.87,16.87,0,0,1-1.48,1.69,20.15,20.15,0,0,1-8,4.73c-9.61-3.18-11.7-10.16-12-11.21V9.19a.55.55,0,0,1,.36-.53L42.62,7l.09,0,7.2-2.87a.54.54,0,0,1,.43,0L61.72,8.66a.56.56,0,0,1,.35.53Z"/><path d="M48.34,25.55a.73.73,0,0,1-.25,0,1,1,0,0,1-.48-.26L42.34,20a1,1,0,0,1,0-1.42L45,16a1,1,0,0,1,1.41,0l2,2,5.56-5.56a1,1,0,0,1,.71-.29h0a1.05,1.05,0,0,1,.71.29L57.92,15a1,1,0,0,1,0,1.42l-8.87,8.86A1,1,0,0,1,48.34,25.55Zm-3.88-6.28,3.87,3.87,7.46-7.46-1.19-1.2L49,20a1,1,0,0,1-1.42,0l-2-2Z"/><path class="cls-2" d="M59.6,48.73H3a1,1,0,0,1-1-1V12.14A6.12,6.12,0,0,1,8.14,6H35.5a1,1,0,0,1,.88.54,1,1,0,0,1-.07,1,.34.34,0,0,0-.06.2V22.58c.08.46,2.07,9.38,13.74,13l.14,0,.17,0A23.57,23.57,0,0,0,57.52,32c.47-.36.93-.74,1.41-1.18a1,1,0,0,1,1.67.74V47.73A1,1,0,0,1,59.6,48.73ZM4,46.73H58.6V33.63a25.38,25.38,0,0,1-7.75,3.88,3.36,3.36,0,0,1-1.41,0C36.83,33.6,34.52,24.13,34.3,23.07a2.72,2.72,0,0,1,0-.49V8H8.14A4.11,4.11,0,0,0,4,12.14Z"/><path class="cls-2" d="M56.62,55H6a6,6,0,0,1-6-6V47.73a1,1,0,0,1,1-1H61.62a1,1,0,0,1,1,1V49A6,6,0,0,1,56.62,55ZM2,48.73V49a4,4,0,0,0,4,4H56.62a4,4,0,0,0,4-4v-.27Z"/><path class="cls-2" d="M42.13,51.58H23a2.43,2.43,0,1,1,0-4.85H42.13a2.43,2.43,0,0,1,0,4.85ZM23,48.73a.43.43,0,1,0,0,.85H42.13a.43.43,0,0,0,0-.85Z"/></g></g></svg>