<?xml version="1.0" encoding="UTF-8"?>
<svg id="Line" xmlns="http://www.w3.org/2000/svg" viewBox="0 0 500 500">
  <path d="m472.42,144.73c-25.93-39.01-87.67-103.8-212.43-106.98v-18.15c0-5.31-4.3-9.6-9.6-9.6s-9.6,4.29-9.6,9.6v18.15c-125.75,3.2-187.46,68.78-213.3,108.27-4.55,6.96-4.28,15.75.7,22.41,5,6.69,13.42,9.46,21.4,7.07h0l8.67-2.61c31.2-9.37,64.67-7.01,94.25,6.61l2.19,1.01c4.26,1.95,9.07,2.32,13.6,1.05l40.95-11.71c10.01-2.86,20.23-4.65,30.5-5.38v86.46c-61,5.49-108.97,56.87-108.97,119.27,0,66.06,53.74,119.79,119.79,119.79s119.79-53.74,119.79-119.79-49.26-115.14-111.41-119.46v-86.39c10.96.63,21.87,2.45,32.54,5.5l41.29,11.8c1.75.5,3.56.74,5.37.74,2.43,0,4.87-.44,7.13-1.33l12.86-5.02c29.28-11.43,61.78-12.14,91.53-2.01,8.1,2.77,16.7.15,21.93-6.63,5.17-6.73,5.49-15.64.8-22.69Zm-121.25,225.48c0,55.47-45.12,100.59-100.59,100.59s-100.59-45.12-100.59-100.59,45.13-100.58,100.59-100.58,100.59,45.12,100.59,100.58Zm.02-212.04l-13.12,5.03-41.29-11.8c-30.35-8.66-62.43-8.66-92.79,0l-41.25,11.69-2.19-1.01c-33.82-15.59-72.11-18.27-107.8-7.57l-8.67,2.61,2.76,9.2-3.28-9.76c24.36-37.25,83.63-99.72,206.83-99.72s181.58,61.73,205.5,99.06c-34.02-11.61-71.21-10.79-104.69,2.29Z" fill="#414042" stroke-width="0"/>
  <path d="m240.36,303.01v11.93h-.38c-15.33,0-27.8,12.47-27.8,27.8v9.68c0,15.33,12.47,27.8,27.8,27.8h.38v26.88h-.38c-4.74,0-8.6-3.85-8.6-8.91,0-5.31-4.3-9.45-9.6-9.45s-9.6,4.45-9.6,9.76c0,15.33,12.47,27.8,27.8,27.8h.38v11.11c0,5.31,4.3,9.6,9.6,9.6s9.6-4.29,9.6-9.6v-11.11h1.63c15.33,0,27.8-12.47,27.8-27.8v-9.68c0-15.33-12.47-27.8-27.8-27.8h-1.63v-26.88h1.63c4.74,0,8.6,3.85,8.6,8.6,0,5.31,4.3,9.6,9.6,9.6s9.6-4.29,9.6-9.6c0-15.33-12.47-27.8-27.8-27.8h-1.63v-11.93c0-5.31-4.3-9.6-9.6-9.6s-9.6,4.29-9.6,9.6Zm20.83,77.21c4.74,0,8.6,3.85,8.6,8.6v9.68c0,4.74-3.86,8.6-8.6,8.6h-1.63v-26.88h1.63Zm-20.83-19.2h-.38c-4.74,0-8.6-3.85-8.6-8.6v-9.68c0-4.74,3.86-8.6,8.6-8.6h.38v26.88Z" fill="#414042" stroke-width="0"/>
</svg>