<?xml version="1.0" encoding="UTF-8"?>
<svg id="Line" xmlns="http://www.w3.org/2000/svg" viewBox="0 0 500 500">
  <path d="m415.03,65.59L267.6,13.02c-11.35-4.03-23.85-4.03-35.21,0l-147.42,52.56c-19.77,7.05-33.05,25.89-33.05,46.87v130.11c0,83.34,42.19,159.45,112.86,203.63l57.43,35.9c8.44,5.27,18.12,7.9,27.79,7.9s19.35-2.63,27.8-7.91l57.42-35.89c70.67-44.17,112.86-120.29,112.86-203.63V112.46c0-20.98-13.28-39.82-33.05-46.87Zm13.84,176.98c0,76.67-38.82,146.71-103.83,187.35h0l-57.42,35.88c-10.7,6.69-24.53,6.69-35.23,0l-57.43-35.89c-65.02-40.64-103.83-110.68-103.83-187.35V112.46c0-12.88,8.16-24.45,20.3-28.78L238.84,31.12c3.6-1.28,7.38-1.92,11.16-1.92s7.56.64,11.16,1.92l147.42,52.56c12.14,4.32,20.3,15.89,20.3,28.78v130.11Z" fill="#414042" stroke-width="0"/>
  <path d="m335.67,221.52h-75.84v-75.84c0-5.31-4.3-9.6-9.6-9.6s-9.6,4.29-9.6,9.6v75.84h-75.84c-5.3,0-9.6,4.29-9.6,9.6s4.3,9.6,9.6,9.6h75.84v75.85c0,5.31,4.3,9.6,9.6,9.6s9.6-4.29,9.6-9.6v-75.85h75.84c5.3,0,9.6-4.29,9.6-9.6s-4.3-9.6-9.6-9.6Z" fill="#414042" stroke-width="0"/>
</svg>