<?xml version="1.0" encoding="UTF-8"?>
<svg id="Line" xmlns="http://www.w3.org/2000/svg" viewBox="0 0 500 500">
  <path d="m445.46,136.22c-21.15,0-39.52,15.06-43.67,35.79l-11.01,55.02c-4.33.71-8.32,2.76-11.47,5.92l-49.32,49.31c-8.41,8.4-13.04,19.59-13.04,31.5v57.24c-10.05.6-18.06,8.94-18.06,19.14v34.96c0,10.58,8.62,19.2,19.2,19.2h125.24c10.58,0,19.2-8.62,19.2-19.2v-34.96c0-8.06-5-14.97-12.06-17.81l33.84-60.4c3.72-6.64,5.69-14.17,5.69-21.77v-109.42c0-24.55-19.98-44.53-44.54-44.53Zm-127.37,288.88v-34.96h125.24l.02,34.96h-125.26Zm152.71-134.93c0,4.32-1.12,8.61-3.23,12.38l-38.32,68.39h-93.1v-57.18c0-6.78,2.63-13.13,7.42-17.92l49.33-49.33c.92-.92,1.79-.93,2.73,0,10.2,10.2,10.44,26.42.55,36.93l-13.42,14.25c-3.64,3.85-3.46,9.94.4,13.57,3.86,3.65,9.93,3.46,13.57-.4l13.42-14.25c17.06-18.11,16.64-46.08-.95-63.67,0,0,0,0,0-.02l11.43-57.15c2.36-11.79,12.82-20.36,24.84-20.36,13.97,0,25.34,11.36,25.34,25.33v109.42Z" fill="#414042" stroke-width="0"/>
  <path d="m183.05,371v-57.24c0-11.91-4.63-23.1-13.04-31.49l-49.31-49.31c-3.16-3.17-7.15-5.21-11.48-5.92l-11.01-55.02c-4.15-20.74-22.52-35.79-43.67-35.79-24.56,0-44.54,19.98-44.54,44.53v109.42c0,7.6,1.97,15.13,5.69,21.78l33.84,60.39c-7.06,2.84-12.06,9.75-12.06,17.81v34.96c0,10.58,8.62,19.2,19.2,19.2h125.24c10.58,0,19.2-8.62,19.2-19.2v-34.96c0-10.2-8-18.55-18.06-19.14ZM29.2,290.16v-109.42c0-13.97,11.37-25.33,25.34-25.33,12.03,0,22.48,8.57,24.84,20.36l11.43,57.15s0,0,0,.02c-17.59,17.59-18.01,45.55-.95,63.67l13.42,14.25c3.63,3.86,9.7,4.05,13.57.4,3.86-3.63,4.04-9.71.4-13.57l-13.42-14.25c-9.89-10.51-9.65-26.73.55-36.93.47-.47,1-.57,1.37-.57s.9.1,1.37.57l49.32,49.33c4.78,4.77,7.42,11.13,7.42,17.91v57.18h-93.1l-38.32-68.38c-2.12-3.79-3.23-8.07-3.23-12.39Zm152.71,134.93H56.67v-34.96h125.24v34.96Z" fill="#414042" stroke-width="0"/>
  <path d="m373.17,148.78c.3-.93.47-1.93.47-2.96,0-.26-.02-.51-.04-.77.24-5.14-.89-10.37-3.47-15.1l-32.23-59.2c-5.04-9.27-14.73-15.04-25.29-15.04h-38.86c-.17,0-.34,0-.51,0h-48.8c-.1,0-.2,0-.3,0h-36.75c-10.57,0-20.25,5.77-25.28,15.03l-32.24,59.21c-2.58,4.74-3.71,9.96-3.47,15.1-.02.25-.04.51-.04.77,0,1.03.17,2.03.47,2.96.93,5.22,3.29,10.21,7.03,14.32l94.8,104.16c5.45,6.02,13.22,9.47,21.34,9.47s15.89-3.45,21.32-9.45l94.82-104.17c3.74-4.11,6.1-9.09,7.03-14.32Zm-177.54,6.64l32.84,83.11-75.64-83.11h42.8Zm70.73-80.51l18.75,61.31h-69.92l16.68-61.31h34.49Zm18.03,80.51l-34.34,85.54-33.8-85.54h68.13Zm20.69,0h42.09l-75.28,82.71,33.2-82.71Zm15.95-75.5l30.65,56.3h-46.5l-18.75-61.31h26.17c3.52,0,6.74,1.92,8.43,5.02Zm-142.06,0c1.68-3.08,4.9-5.01,8.42-5.01h24.58l-16.68,61.31h-46.99l30.66-56.31Z" fill="#414042" stroke-width="0"/>
</svg>