<svg xmlns="http://www.w3.org/2000/svg" viewBox="0 0 66 55.54"><defs><style>.cls-1{fill:#4d98d3;}.cls-2{fill:#5195d0;}.cls-3{fill:none;stroke:#000;stroke-linecap:round;stroke-linejoin:round;stroke-width:2px;}.cls-4{fill:#231f20;}</style></defs><g id="Layer_2" data-name="Layer 2"><g id="Color"><path class="cls-1" d="M63.57,22.74l-6.38-2.55L49.43,17.1a1.5,1.5,0,0,0-1.14,0l-4.35,1.74-9.78,3.9a1.53,1.53,0,0,0-1,1.43V39.73a1.71,1.71,0,0,0,0,.31A17.89,17.89,0,0,0,37.67,48,24.18,24.18,0,0,0,48.4,54.47l.17,0a1.36,1.36,0,0,0,.29,0,1.83,1.83,0,0,0,.46-.07c13-4,15.1-14,15.19-14.43a1.71,1.71,0,0,0,0-.31V24.17A1.54,1.54,0,0,0,63.57,22.74ZM61.46,39.55c-.26,1-2,6.94-9.55,10.59a23.33,23.33,0,0,1-3,1.24c-6.37-2.1-9.6-5.8-11.19-8.52a12.9,12.9,0,0,1-1.41-3.3v-14a.59.59,0,0,1,.38-.55l10.15-4,1.84-.74a.58.58,0,0,1,.45,0l12,4.79a.59.59,0,0,1,.38.55Z"/><polygon class="cls-1" points="56.32 32.46 53.57 29.71 46.97 36.32 44.15 33.5 41.4 36.25 46.96 41.81 46.97 41.8 46.98 41.81 56.32 32.46"/><path class="cls-2" d="M57.19,20.19,49.43,17.1a1.5,1.5,0,0,0-1.14,0l-4.35,1.74L32.66,10.2a2.13,2.13,0,0,0-2.6,0L10.81,24.92h0l-5.21,4a2.13,2.13,0,0,1-3-.41L1,26.37a2.14,2.14,0,0,1,.41-3l9.43-7.21h0l7.92-6.06,6.9-5.27,4.43-3.39a2.12,2.12,0,0,1,2.59,0l4.43,3.39L51.92,16.16Z"/><path class="cls-2" d="M37.67,48v6.58H25.05V37.28A6.31,6.31,0,0,1,31.36,31a6.19,6.19,0,0,1,1.83.27v8.49a1.71,1.71,0,0,0,0,.31A17.89,17.89,0,0,0,37.67,48Z"/><path class="cls-3" d="M64,22.74l-6.38-2.55L49.89,17.1a1.5,1.5,0,0,0-1.14,0L44.4,18.84l-9.79,3.9a1.54,1.54,0,0,0-1,1.43V39.73a1.71,1.71,0,0,0,0,.31A17.77,17.77,0,0,0,38.13,48a24.18,24.18,0,0,0,10.73,6.51l.17,0a1.36,1.36,0,0,0,.29,0,1.83,1.83,0,0,0,.46-.07c12.95-4,15.1-14,15.19-14.43a1.71,1.71,0,0,0,0-.31V24.17A1.54,1.54,0,0,0,64,22.74ZM61.92,39.55c-.26,1-2,6.94-9.55,10.59a23.33,23.33,0,0,1-3,1.24c-6.37-2.1-9.6-5.8-11.19-8.52a12.9,12.9,0,0,1-1.41-3.3v-14a.59.59,0,0,1,.38-.55l10.14-4,1.85-.74a.58.58,0,0,1,.45,0l12,4.79a.59.59,0,0,1,.38.55Z"/><path d="M47.44,42.81a.72.72,0,0,1-.25,0,1,1,0,0,1-.48-.26L41.15,37a1,1,0,0,1,0-1.42l2.75-2.75a1,1,0,0,1,1.41,0l2.12,2.11L53.32,29a1,1,0,0,1,1.42,0l2.75,2.75a1,1,0,0,1,0,1.41l-9.35,9.35A1,1,0,0,1,47.44,42.81Zm-4.17-6.56,4.16,4.16,7.94-7.95L54,31.13,48.13,37a1,1,0,0,1-1.41,0l-2.11-2.11Z"/><path class="cls-4" d="M4.77,30.34a3.12,3.12,0,0,1-2.5-1.24L.64,27a3.15,3.15,0,0,1,.59-4.4l9.41-7.18,0,0L29.92.65a3.11,3.11,0,0,1,3.81,0L58.26,19.4a1,1,0,0,1,.26,1.29,1,1,0,0,1-1.24.43L49.52,18a.46.46,0,0,0-.38,0l-4.37,1.74a1,1,0,0,1-1-.13L32.51,11a1.14,1.14,0,0,0-1.38,0L12,25.64l-.09.08-5.21,4A3.15,3.15,0,0,1,4.77,30.34Zm7.15-13.41,0,0L2.44,24.17a1.15,1.15,0,0,0-.21,1.6l1.63,2.12a1.14,1.14,0,0,0,1.6.22l5.11-3.91.1-.08L29.91,9.41a3.14,3.14,0,0,1,3.82,0L44.56,17.7l3.82-1.53a2.47,2.47,0,0,1,1.89,0l1,.4L32.51,2.24a1.11,1.11,0,0,0-1.37,0Z"/><path class="cls-4" d="M48.55,55.54H38.13a1,1,0,0,1-1-1V48a1,1,0,0,1,1.73-.68A23.21,23.21,0,0,0,49.13,53.5l.08,0a1,1,0,0,1,.83,1,1,1,0,0,1-.88,1A5.86,5.86,0,0,1,48.55,55.54Zm-9.42-2h4.8a24.25,24.25,0,0,1-4.8-3.22Z"/><path class="cls-4" d="M25.51,55.54H15.09a4.82,4.82,0,0,1-4.82-4.82V24.92a1,1,0,0,1,.4-.8L29.91,9.41a3.14,3.14,0,0,1,3.82,0L45,18a1,1,0,0,1,.38.93,1,1,0,0,1-.62.79L35,23.67a.52.52,0,0,0-.34.5v7.07a1,1,0,0,1-.41.8,1,1,0,0,1-.89.15A5.1,5.1,0,0,0,31.82,32a5.31,5.31,0,0,0-5.31,5.31V54.54A1,1,0,0,1,25.51,55.54ZM12.27,25.41V50.72a2.82,2.82,0,0,0,2.82,2.82h9.42V37.28A7.32,7.32,0,0,1,31.82,30a7.69,7.69,0,0,1,.83,0V24.17a2.51,2.51,0,0,1,1.6-2.36l8.14-3.25L32.51,11a1.14,1.14,0,0,0-1.38,0Z"/><path class="cls-4" d="M38.13,55.54H25.51a1,1,0,0,1-1-1V37.28A7.32,7.32,0,0,1,31.82,30a7.06,7.06,0,0,1,2.12.31,1,1,0,0,1,.71,1v8.49a.57.57,0,0,0,0,.13,17,17,0,0,0,4.2,7.42,1,1,0,0,1,.27.68v6.58A1,1,0,0,1,38.13,55.54Zm-11.62-2H37.13V48.35a18.75,18.75,0,0,1-4.44-8.12,3,3,0,0,1,0-.5V32a5.69,5.69,0,0,0-.83-.06,5.31,5.31,0,0,0-5.31,5.31Z"/><path class="cls-4" d="M11.27,17.16a.91.91,0,0,1-.39-.08,1,1,0,0,1-.61-.91V3.41a2,2,0,0,1,2-2h6a2,2,0,0,1,2,2V10.1a1,1,0,0,1-.39.79L11.9,17A1,1,0,0,1,11.27,17.16Zm1-13.71,0,10.7L18.2,9.61V3.45Zm7,6.65h0Z"/></g></g></svg>