<svg xmlns="http://www.w3.org/2000/svg" viewBox="0 0 66.44 60.65"><defs><style>.cls-1{fill:#5195d0;}.cls-2{fill:#231f20;}</style></defs><g id="Layer_2" data-name="Layer 2"><g id="Color"><polygon class="cls-1" points="42.83 16.54 37.11 22.27 30.48 28.89 24.76 34.61 14.7 24.55 32.77 6.48 42.83 16.54"/><polygon class="cls-1" points="40.21 25.37 38.82 26.76 34.98 30.61 33.59 32 30.48 28.89 37.1 22.26 37.11 22.27 40.21 25.37"/><polygon class="cls-1" points="65.44 51.09 59.31 57.22 53.17 51.09 54.32 49.95 58.16 46.1 59.31 44.96 65.44 51.09"/><path class="cls-1" d="M24.7,55.74v3a.94.94,0,0,1-.94.94H1.94A1,1,0,0,1,1,58.71v-3a1,1,0,0,1,.94-.94H23.76A.94.94,0,0,1,24.7,55.74Z"/><path class="cls-2" d="M24.75,35.61a1,1,0,0,1-.71-.29L14,25.26a1,1,0,0,1,0-1.41L32.06,5.77a1,1,0,0,1,1.41,0L43.53,15.83a1,1,0,0,1,0,1.42L25.46,35.32A1,1,0,0,1,24.75,35.61ZM16.11,24.55l8.64,8.65L41.41,16.54,32.77,7.89Z"/><path class="cls-2" d="M22.13,40.84a1,1,0,0,1-.7-.29L8.51,27.63a1,1,0,0,1,0-1.41l3.92-3.93a1,1,0,0,1,1.42,0L26.77,35.21a1,1,0,0,1,0,1.42l-3.93,3.92A1,1,0,0,1,22.13,40.84ZM10.63,26.92l11.5,11.51,2.52-2.51L13.14,24.41Z"/><path class="cls-2" d="M44.13,18.85a1,1,0,0,1-.7-.3L30.5,5.63a1,1,0,0,1,0-1.41L34.43.29a1,1,0,0,1,1.41,0L48.76,13.21a1,1,0,0,1,0,1.42l-3.92,3.92A1,1,0,0,1,44.13,18.85ZM32.63,4.93l11.5,11.5,2.51-2.51L35.14,2.41Z"/><path class="cls-2" d="M33.58,33a1,1,0,0,1-.7-.29l-3.11-3.11a1,1,0,0,1,0-1.41l6.62-6.62a1,1,0,0,1,1.42,0l3.1,3.1a1,1,0,0,1,0,1.42L34.29,32.7A1,1,0,0,1,33.58,33Zm-1.69-4.1,1.69,1.69,5.21-5.21L37.1,23.68Z"/><path class="cls-2" d="M54.31,50.94a1,1,0,0,1-.7-.29L34.27,31.31a1,1,0,0,1-.3-.71,1,1,0,0,1,.3-.7l3.84-3.85a1,1,0,0,1,1.41,0L58.86,45.39a1,1,0,0,1,.3.71,1,1,0,0,1-.3.71L55,50.65A1,1,0,0,1,54.31,50.94ZM36.39,30.6,54.31,48.53l2.43-2.43L38.82,28.17Z"/><path class="cls-2" d="M59.3,58.22a1,1,0,0,1-.71-.29L52.46,51.8a1,1,0,0,1,0-1.42l6.13-6.13a1,1,0,0,1,1.42,0l6.13,6.13a1,1,0,0,1,0,1.42L60,57.93A1,1,0,0,1,59.3,58.22Zm-4.72-7.13,4.72,4.72L64,51.09,59.3,46.37Z"/><path class="cls-2" d="M22.21,55.79H3.49a1,1,0,0,1-1-1V51.64a2.19,2.19,0,0,1,2.18-2.18H21a2.19,2.19,0,0,1,2.19,2.18v3.15A1,1,0,0,1,22.21,55.79Zm-17.72-2H21.21V51.64a.19.19,0,0,0-.19-.18H4.67a.18.18,0,0,0-.18.18Z"/><path class="cls-2" d="M23.75,60.65H1.94A1.94,1.94,0,0,1,0,58.71v-3a1.94,1.94,0,0,1,1.94-1.94H23.75a1.94,1.94,0,0,1,1.94,1.94v3A1.94,1.94,0,0,1,23.75,60.65Zm-.06-4.92-21.75.06L2,58.71l21.69-.06Z"/></g></g></svg>