<?xml version="1.0" encoding="UTF-8"?>
<svg id="Line" xmlns="http://www.w3.org/2000/svg" viewBox="0 0 500 500">
  <path d="m380.79,131.37c4.35-55.23-26.25-81.03-53.78-86.35-25.68-4.97-57.62,5.68-76.08,33.73-15.18-26.59-45.29-37.77-71.36-34.32-33.3,4.42-65,33.02-60.75,86.94,5.82,73.84,85.37,127.2,109.61,141.79,10.13,6.1,15.55,8.73,18.95,9.62.67.23,1.38.38,2.24.38h.37c.86,0,1.57-.15,2.24-.38,3.4-.9,8.82-3.52,18.95-9.62,24.24-14.6,103.79-67.95,109.61-141.79Zm-130.98,131.78c-18.18-8.75-106.32-63.22-111.84-133.29-3.49-44.22,21.59-63.41,44.13-66.4,2.39-.31,4.8-.47,7.22-.47,22.45,0,45.67,13.65,51.05,42.31.81,4.34,4.47,7.56,8.87,7.81,4.35.37,8.41-2.51,9.73-6.72,10.52-33.67,41.02-47.05,64.39-42.52,20.71,4,41.64,23.44,38.28,65.99-5.52,70.07-93.66,124.54-111.84,133.29Z" fill="#414042" stroke-width="0"/>
  <path d="m445.46,148.09c-21.15,0-39.52,15.06-43.67,35.8l-11.01,55.04c-4.2.69-8.24,2.66-11.48,5.9l-49.32,49.32c-8.41,8.42-13.04,19.6-13.04,31.49v57.24c-10.05.6-18.05,8.94-18.05,19.14v34.97c0,10.59,8.61,19.2,19.2,19.2h125.24c10.59,0,19.2-8.61,19.2-19.2v-34.97c0-8.06-5-14.96-12.05-17.81l33.84-60.39c3.72-6.63,5.69-14.17,5.69-21.78v-109.41c0-24.56-19.98-44.54-44.54-44.54Zm-127.37,288.89v-34.97h125.24v34.97s-125.24,0-125.24,0Zm152.71-134.94c0,4.33-1.12,8.62-3.23,12.39l-38.32,68.38h-93.11v-57.18c0-6.67,2.7-13.2,7.42-17.92l49.31-49.31c.76-.76,1.99-.75,2.75,0,10.2,10.2,10.44,26.42.55,36.93l-13.42,14.25c-3.63,3.86-3.45,9.93.41,13.57,3.85,3.63,9.93,3.45,13.57-.41l13.42-14.25c17.06-18.11,16.64-46.07-.95-63.67,0,0,0,0,0,0l11.43-57.15c2.36-11.8,12.81-20.37,24.85-20.37,13.97,0,25.34,11.37,25.34,25.34v109.41Z" fill="#414042" stroke-width="0"/>
  <path d="m183.06,382.87v-57.24c0-11.89-4.63-23.07-13.05-31.49l-49.32-49.32c-3.23-3.23-7.27-5.2-11.47-5.89l-11.01-55.04c-4.15-20.75-22.52-35.8-43.67-35.8-24.56,0-44.54,19.98-44.54,44.54v109.41c0,7.61,1.96,15.15,5.68,21.77l33.84,60.39c-7.06,2.84-12.05,9.74-12.05,17.81v34.97c0,10.59,8.61,19.2,19.2,19.2h125.24c10.59,0,19.2-8.61,19.2-19.2v-34.97c0-10.2-8-18.54-18.05-19.14ZM29.2,302.05v-109.41c0-13.97,11.37-25.34,25.34-25.34,12.04,0,22.49,8.57,24.85,20.37l11.43,57.15s0,0,0,0c-17.59,17.59-18.01,45.56-.95,63.67l13.42,14.25c3.64,3.86,9.72,4.04,13.57.41,3.86-3.64,4.04-9.71.41-13.57l-13.42-14.25c-9.9-10.5-9.65-26.72.55-36.93.76-.75,1.99-.75,2.74,0l49.31,49.32c4.72,4.72,7.43,11.25,7.43,17.92v57.18h-93.11l-38.32-68.39c-2.11-3.77-3.23-8.05-3.23-12.38Zm152.71,134.94H56.67v-34.97h125.24v34.97Z" fill="#414042" stroke-width="0"/>
</svg>