<svg xmlns="http://www.w3.org/2000/svg" viewBox="0 0 66 57.02"><defs><style>.cls-1{fill:#5b93ce;}.cls-2{fill:none;stroke:#000;stroke-linecap:round;stroke-linejoin:round;stroke-width:2px;}.cls-3{fill:#231f20;}</style></defs><g id="Layer_2" data-name="Layer 2"><g id="Color"><path class="cls-1" d="M64,23.82,49.71,18.11a1.47,1.47,0,0,0-.59-.11,1.53,1.53,0,0,0-.58.11L34.23,23.82a1.44,1.44,0,0,0-.69.57,1.45,1.45,0,0,0-.29.88V41a1.53,1.53,0,0,0,0,.3,18,18,0,0,0,4.3,7.79,24.18,24.18,0,0,0,11.09,6.82,1.44,1.44,0,0,0,.46.08,1.54,1.54,0,0,0,.46-.08,25.88,25.88,0,0,0,8.07-4.07A19.17,19.17,0,0,0,65,41.33a1.53,1.53,0,0,0,0-.3V25.27A1.57,1.57,0,0,0,64,23.82Zm-2.14,17a15.66,15.66,0,0,1-4.22,6.93,21.53,21.53,0,0,1-8.53,5,22.47,22.47,0,0,1-7-3.7,16,16,0,0,1-5.75-8.27V26.73a.6.6,0,0,1,.38-.56l4.46-1.78,7.68-3.06a.57.57,0,0,1,.22,0,.45.45,0,0,1,.23,0L61.5,26.17a.61.61,0,0,1,.38.56Z"/><polygon class="cls-1" points="56.68 33.66 53.9 30.88 47.21 37.56 44.35 34.71 41.57 37.5 47.2 43.13 47.21 43.11 47.22 43.13 56.68 33.66"/><polygon class="cls-1" points="33.6 19.65 25.39 13.91 17.17 19.65 17.17 1 33.6 1 33.6 19.65"/><path class="cls-2" d="M64,23.82,49.71,18.11a1.47,1.47,0,0,0-.59-.11,1.53,1.53,0,0,0-.58.11L34.23,23.82a1.44,1.44,0,0,0-.69.57,1.45,1.45,0,0,0-.29.88V41a1.53,1.53,0,0,0,0,.3,18,18,0,0,0,4.3,7.79,24.18,24.18,0,0,0,11.09,6.82,1.44,1.44,0,0,0,.46.08,1.54,1.54,0,0,0,.46-.08,25.88,25.88,0,0,0,8.07-4.07A19.17,19.17,0,0,0,65,41.33a1.53,1.53,0,0,0,0-.3V25.27A1.57,1.57,0,0,0,64,23.82Zm-2.14,17a15.66,15.66,0,0,1-4.22,6.93,21.53,21.53,0,0,1-8.53,5,22.47,22.47,0,0,1-7-3.7,16,16,0,0,1-5.75-8.27V26.73a.6.6,0,0,1,.38-.56l4.46-1.78,7.68-3.06a.57.57,0,0,1,.22,0,.45.45,0,0,1,.23,0L61.5,26.17a.61.61,0,0,1,.38.56Z"/><path d="M47.22,44.13a.77.77,0,0,1-.25,0,1,1,0,0,1-.48-.26L40.86,38.2a1,1,0,0,1,0-1.41L43.65,34a1,1,0,0,1,1.41,0l2.15,2.15,6-6a1,1,0,0,1,1.41,0L57.39,33a1,1,0,0,1,0,1.41l-9.46,9.46A1,1,0,0,1,47.22,44.13ZM43,37.5l4.23,4.22,8.06-8-1.38-1.38-6,6a1,1,0,0,1-1.42,0l-2.15-2.14Z"/><path class="cls-3" d="M37.58,50.12h-34A3.59,3.59,0,0,1,0,46.54V3.59A3.59,3.59,0,0,1,3.59,0H46.53a3.59,3.59,0,0,1,3.59,3.59V18a1,1,0,0,1-1,1,.54.54,0,0,0-.19,0L34.6,24.75a.44.44,0,0,0-.22.18.52.52,0,0,0-.13.34V41s0,.07,0,.11a17.18,17.18,0,0,0,4.06,7.31,1,1,0,0,1-.74,1.67ZM3.59,2A1.59,1.59,0,0,0,2,3.59v43a1.59,1.59,0,0,0,1.59,1.58H35.47a17.94,17.94,0,0,1-3.17-6.6,2.72,2.72,0,0,1,0-.49V25.27a2.57,2.57,0,0,1,.47-1.47,2.43,2.43,0,0,1,1.16-.91l14.24-5.68V3.59A1.59,1.59,0,0,0,46.53,2Z"/><path class="cls-3" d="M33.6,20.65a1,1,0,0,1-.57-.18l-7.64-5.34-7.65,5.34a1,1,0,0,1-1,.07,1,1,0,0,1-.54-.89V1a1,1,0,0,1,1-1H33.6a1,1,0,0,1,1,1V19.65a1,1,0,0,1-.53.89A1.12,1.12,0,0,1,33.6,20.65Zm-8.21-7.74a1,1,0,0,1,.57.18l6.64,4.64V2H18.17V17.73l6.64-4.64A1,1,0,0,1,25.39,12.91Z"/><path class="cls-3" d="M15.39,37.8H8.55a1,1,0,0,1,0-2h6.84a1,1,0,0,1,0,2Z"/><path class="cls-3" d="M24.2,43.38H8.55a1,1,0,0,1,0-2H24.2a1,1,0,0,1,0,2Z"/></g></g></svg>