<svg xmlns="http://www.w3.org/2000/svg" viewBox="0 0 66 65.15"><defs><style>.cls-1{fill:#5195d0;}.cls-2{fill:none;stroke:#000;stroke-linecap:round;stroke-linejoin:round;stroke-width:2px;}</style></defs><g id="Layer_2" data-name="Layer 2"><g id="Color"><path class="cls-1" d="M64,32,50.61,26.68l-.87-.35a1.55,1.55,0,0,0-1.16,0l-1.9.76L34.3,32a1.45,1.45,0,0,0-.7.57,1.48,1.48,0,0,0-.28.87V49.2a1.53,1.53,0,0,0,0,.3c.09.41,2,9.44,13.33,13.87.64.25,1.32.49,2,.71a1.78,1.78,0,0,0,.47.07,1.76,1.76,0,0,0,.45-.07A26,26,0,0,0,57.68,60,19.15,19.15,0,0,0,65,49.5a1.53,1.53,0,0,0,0-.3V33.47A1.55,1.55,0,0,0,64,32ZM61.88,49a15.5,15.5,0,0,1-4.2,6.9,21.63,21.63,0,0,1-8.51,5,26.4,26.4,0,0,1-2.49-1c-8.12-3.66-10-10-10.24-11V34.94a.6.6,0,0,1,.38-.57l4.45-1.77,5.41-2.16,2.25-.9a.61.61,0,0,1,.46,0l1.22.48,10.9,4.35a.61.61,0,0,1,.37.57Z"/><polygon class="cls-1" points="56.71 41.85 53.93 39.07 47.26 45.74 44.41 42.9 41.63 45.68 47.24 51.29 47.26 51.28 47.27 51.29 56.71 41.85"/><path class="cls-1" d="M50.61,1V26.68l-.87-.35a1.55,1.55,0,0,0-1.16,0l-1.9.76V18.41L33.2,5.56H4.93V1Z"/><polygon class="cls-1" points="46.67 18.41 33.2 18.41 33.2 5.56 46.67 18.41"/><path class="cls-2" d="M64,32,50.61,26.68l-.87-.35a1.55,1.55,0,0,0-1.16,0l-1.9.76L34.3,32a1.45,1.45,0,0,0-.7.57,1.48,1.48,0,0,0-.28.87V49.2a1.53,1.53,0,0,0,0,.3c.09.41,2,9.44,13.33,13.87.64.25,1.32.49,2,.71a1.78,1.78,0,0,0,.47.07,1.76,1.76,0,0,0,.45-.07A26,26,0,0,0,57.68,60,19.15,19.15,0,0,0,65,49.5a1.53,1.53,0,0,0,0-.3V33.47A1.55,1.55,0,0,0,64,32ZM61.88,49a15.5,15.5,0,0,1-4.2,6.9,21.63,21.63,0,0,1-8.51,5,26.4,26.4,0,0,1-2.49-1c-8.12-3.66-10-10-10.24-11V34.94a.6.6,0,0,1,.38-.57l4.45-1.77,5.41-2.16,2.25-.9a.61.61,0,0,1,.46,0l1.22.48,10.9,4.35a.61.61,0,0,1,.37.57Z"/><path d="M47.27,52.29a1,1,0,0,1-.25,0,1,1,0,0,1-.48-.26l-5.62-5.62a1,1,0,0,1,0-1.41l2.78-2.78a1,1,0,0,1,.71-.29h0a1,1,0,0,1,.7.29l2.14,2.14,6-6a1,1,0,0,1,1.41,0l2.78,2.77a1,1,0,0,1,.3.71,1,1,0,0,1-.3.71L48,52A1,1,0,0,1,47.27,52.29ZM43,45.68l4.21,4.21,8-8-1.36-1.36-6,6a1,1,0,0,1-.71.29h0a1,1,0,0,1-.7-.29l-2.14-2.14Z"/><path d="M46.68,64.47H1a1,1,0,0,1-1-1V5.56a1,1,0,0,1,1-1H33.2a1,1,0,0,1,1,1V17.41H46.68a1,1,0,0,1,1,1v8.68a1,1,0,0,1-.63.93L34.67,33a.44.44,0,0,0-.22.18.52.52,0,0,0-.13.33V49.2s0,.06,0,.1c.2.9,2.25,9,12.71,13.14a1,1,0,0,1,.64.93v.1A1,1,0,0,1,46.68,64.47ZM2,62.47H42.51c-8.15-4.76-9.94-11.86-10.13-12.75a2.44,2.44,0,0,1-.06-.52V33.47A2.54,2.54,0,0,1,32.79,32a2.39,2.39,0,0,1,1.15-.91l11.74-4.69v-7H33.2a1,1,0,0,1-1-1V6.56H2Z"/><path d="M46.68,19.41H33.2a1,1,0,0,1-1-1V5.56a1,1,0,0,1,1.69-.73L47.37,17.68a1,1,0,0,1-.69,1.73Zm-12.48-2h10l-10-9.52Z"/><path d="M46.68,28.09a1.06,1.06,0,0,1-.57-.17,1,1,0,0,1-.43-.83V18.83L32.8,6.56H4.93a1,1,0,0,1-1-1V1a1,1,0,0,1,1-1H50.61a1,1,0,0,1,1,1V26.68a1,1,0,0,1-1.37.93l-.87-.35a.58.58,0,0,0-.41,0L47,28A.92.92,0,0,1,46.68,28.09ZM5.93,4.56H33.2a1,1,0,0,1,.69.27L47.37,17.68a1,1,0,0,1,.31.73v7.21l.53-.22a2.49,2.49,0,0,1,1.4-.14V2H5.93Z"/><path d="M46.68,19.41H33.2a1,1,0,0,1-1-1V5.56a1,1,0,0,1,1.69-.73L47.37,17.68a1,1,0,0,1-.69,1.73Zm-12.48-2h10l-10-9.52Z"/><path d="M13.68,11.89H6.46a1,1,0,0,1,0-2h7.22a1,1,0,0,1,0,2Z"/><path d="M17.39,15.7H6.46a1,1,0,0,1,0-2H17.39a1,1,0,0,1,0,2Z"/><path d="M39.94,23.31H6.46a1,1,0,0,1,0-2H39.94a1,1,0,0,1,0,2Z"/><path d="M39.94,28.46H6.46a1,1,0,0,1,0-2H39.94a1,1,0,0,1,0,2Z"/><path d="M20.84,33.6H6.46a1,1,0,0,1,0-2H20.84a1,1,0,0,1,0,2Z"/><path d="M28.78,38.74H6.46a1,1,0,0,1,0-2H28.78a1,1,0,1,1,0,2Z"/><path d="M28.78,43.89H6.46a1,1,0,0,1,0-2H28.78a1,1,0,0,1,0,2Z"/><path d="M28.78,49H6.46a1,1,0,0,1,0-2H28.78a1,1,0,0,1,0,2Z"/><path d="M28.78,54.17H6.46a1,1,0,0,1,0-2H28.78a1,1,0,0,1,0,2Z"/></g></g></svg>