<svg xmlns="http://www.w3.org/2000/svg" viewBox="0 0 66 64.51"><defs><style>.cls-1{fill:#5195d0;}.cls-2{fill:#231f20;}</style></defs><g id="Layer_2" data-name="Layer 2"><g id="Color"><path class="cls-1" d="M36.93,40a1.5,1.5,0,0,1-.47-.08C22.93,35.66,20.68,25.24,20.59,24.8a1.66,1.66,0,0,1,0-.32V8.22a1.6,1.6,0,0,1,1-1.49L36.34.84a1.63,1.63,0,0,1,1.19,0L52.3,6.73a1.6,1.6,0,0,1,1,1.49V24.48a1.66,1.66,0,0,1,0,.32c-.09.44-2.34,10.86-15.87,15.07A1.51,1.51,0,0,1,36.93,40ZM23.77,24.3c.29,1.16,2.59,8.85,13.16,12.35C47.5,33.15,49.8,25.48,50.09,24.3V9.74a.63.63,0,0,0-.39-.59l-12.53-5a.76.76,0,0,0-.47,0l-12.53,5a.64.64,0,0,0-.4.59Z"/><polygon class="cls-1" points="44.73 16.89 41.86 14.02 34.96 20.92 32.01 17.97 29.14 20.84 34.95 26.65 34.96 26.64 34.97 26.65 44.73 16.89"/><rect class="cls-1" x="1" y="40.93" width="6.81" height="22.31" rx="1.61"/><path d="M36.93,41.22a2.53,2.53,0,0,1-.77-.12C22.08,36.72,19.7,25.74,19.61,25.28a3.05,3.05,0,0,1-.05-.52V8.5A2.59,2.59,0,0,1,21.2,6.08L36,.19a2.58,2.58,0,0,1,1.93,0L52.67,6.08A2.59,2.59,0,0,1,54.31,8.5V24.76a2.84,2.84,0,0,1-.05.51c-.1.47-2.46,11.44-16.55,15.84A2.88,2.88,0,0,1,36.93,41.22ZM36.93,2a.85.85,0,0,0-.22,0L21.94,7.94a.6.6,0,0,0-.38.56V24.76a.49.49,0,0,0,0,.12c.08.42,2.22,10.27,15.18,14.31a.63.63,0,0,0,.36,0c13-4.05,15.1-13.9,15.19-14.32,0,0,0-.08,0-.12V8.5a.6.6,0,0,0-.38-.56L37.16,2A.85.85,0,0,0,36.93,2Zm0,35.93a1.12,1.12,0,0,1-.31,0c-11-3.63-13.43-11.52-13.82-13.06a1,1,0,0,1,0-.24V10a1.63,1.63,0,0,1,1-1.51l12.53-5a1.68,1.68,0,0,1,1.21,0l12.53,5a1.62,1.62,0,0,1,1,1.51V24.58a1,1,0,0,1,0,.24c-.38,1.54-2.86,9.43-13.81,13.06A1.13,1.13,0,0,1,36.93,37.93ZM24.77,24.45c.34,1.23,2.62,8.13,12.16,11.42,9.54-3.29,11.83-10.19,12.16-11.42V10.27L36.93,5.42,24.77,10.27Z"/><path d="M35,27.93l-.2,0a1,1,0,0,1-.53-.27l-5.81-5.81a1,1,0,0,1,0-1.41l2.87-2.88a1,1,0,0,1,1.42,0L35,19.78l6.19-6.19a1,1,0,0,1,1.41,0l2.88,2.87a1,1,0,0,1,0,1.42l-9.76,9.76A1.05,1.05,0,0,1,35,27.93Zm-4.42-6.81L35,25.53l8.36-8.36-1.46-1.46-6.2,6.19a1,1,0,0,1-1.41,0L32,19.66Z"/><path class="cls-2" d="M7.81,62.9a1,1,0,0,1-.71-.3,1,1,0,0,1-.29-.7V52.66c0-7.34,5.13-12.6,12.47-12.81,5.09-.13,8.8,1,11,3.33H41.55a5.65,5.65,0,0,1,4,1.63,5.56,5.56,0,0,1,1.65,3.81l10.63-9.71A4.88,4.88,0,0,1,66,42.74a4.82,4.82,0,0,1-1.58,3.39L48.07,61.06a7,7,0,0,1-4.68,1.82l-35.58,0ZM20.13,41.84h-.8C13,42,8.81,46.37,8.81,52.66V60.9l34.58,0a4.94,4.94,0,0,0,3.33-1.3L63.06,44.65h0a2.89,2.89,0,0,0,.94-2,2.94,2.94,0,0,0-.76-2.09,2.89,2.89,0,0,0-4.08-.17L44.1,54.14a1,1,0,0,1-.68.26H42a1,1,0,0,1-.1-2,3.62,3.62,0,0,0-.37-7.23H29.87a1,1,0,0,1-.77-.36C27.43,42.84,24.41,41.84,20.13,41.84Z"/><path class="cls-2" d="M42,54.4H26.22a1,1,0,0,1,0-2H42a1,1,0,0,1,0,2Z"/><path class="cls-2" d="M6.19,64.51H2.61A2.61,2.61,0,0,1,0,61.9V42.82A2.62,2.62,0,0,1,2.61,40.2H6.19a2.62,2.62,0,0,1,2.62,2.62V61.9A2.61,2.61,0,0,1,6.19,64.51ZM2.61,42.2a.61.61,0,0,0-.61.62V61.9a.61.61,0,0,0,.61.61H6.19a.62.62,0,0,0,.62-.61V42.82a.62.62,0,0,0-.62-.62Z"/></g></g></svg>