<?xml version="1.0" encoding="UTF-8"?>
<svg id="Line" xmlns="http://www.w3.org/2000/svg" viewBox="0 0 500 500">
  <path d="m421.56,62.87L258.42,11.35c-5.71-1.8-11.75-1.8-17.46,0L77.81,62.87c-14.25,4.5-23.82,17.57-23.82,32.5v146.06c0,82.33,41.68,157.53,111.5,201.16l68.83,43.02c4.67,2.92,10.02,4.38,15.37,4.38s10.7-1.46,15.36-4.38l68.84-43.02c69.82-43.63,111.5-118.84,111.5-201.16V95.37c0-14.94-9.57-28-23.82-32.5Zm4.62,178.57c0,75.66-38.31,144.78-102.47,184.88l-68.84,43.03c-3.15,1.97-7.21,1.97-10.37,0l-68.84-43.02c-64.16-40.1-102.47-109.21-102.47-184.88V95.37c0-6.52,4.18-12.23,10.41-14.19L246.75,29.66c.96-.3,1.95-.46,2.94-.46s1.98.15,2.94.46l163.15,51.52c6.23,1.97,10.41,7.67,10.41,14.19v146.06Z" fill="#414042" stroke-width="0"/>
  <path d="m353.71,159.64c-4.11-3.35-10.15-2.76-13.51,1.35l-104.05,127.18-66.02-55.02c-4.07-3.4-10.12-2.84-13.52,1.23-3.39,4.07-2.85,10.13,1.23,13.52l73.46,61.22c1.73,1.44,3.91,2.23,6.15,2.23.3,0,.61-.01.91-.04,2.55-.24,4.89-1.5,6.52-3.48l110.19-134.67c3.36-4.11,2.75-10.15-1.35-13.51Z" fill="#414042" stroke-width="0"/>
</svg>